# xmcd
#
# Track frame offsets:
#	300
#	10112
#	27886
#	30010
#	45660
#	46781
#	70367
#	73266
#	98171
#	100292
#	118810
#	119605
#	137458
#	140392
#	152017
#	153775
#	185012
#	187624
#	206878
#	207580
#	218237
#	221939
#	276027
#	277625
#	295245
#	297476
#	312355
#	319920
#	346425
#	348894
#
# Disc length: 4785 seconds
#
# Revision: 1
# Processed by: cddbd v1.5PL3 Copyright (c) Steve Scherf et al.
# Submitted via: EasyCDDAExtractor 5.1.0
#
DISCID=ce12ad1e
DTITLE=Jorma Kaukonen and Barry Mitterhoff - Live at Skippers, Tampa, FL - 02.02
DTITLE=03
DYEAR=2003
DGENRE=Blues
TTITLE0=Intro
TTITLE1=Hesitation Blues
TTITLE2=Chat
TTITLE3=Big River Blues
TTITLE4=Chat
TTITLE5=That'll Never Happen No More
TTITLE6=Chat
TTITLE7=Death Don't Have No Mercy
TTITLE8=Chat
TTITLE9=Do Not Go Gentle
TTITLE10=Chat
TTITLE11=Red River Blues
TTITLE12=Chat
TTITLE13=I'll Let You Know Before I Leave
TTITLE14=Chat
TTITLE15=Uncle Sam Blues
TTITLE16=Chat
TTITLE17=Living In The Moment
TTITLE18=Chat
TTITLE19=Embryonic Journey
TTITLE20=Chat
TTITLE21=Good Shepard
TTITLE22=Chat
TTITLE23=Flying Clouds
TTITLE24=Chat
TTITLE25=Tom Cat Blues
TTITLE26=Chat
TTITLE27=Follow The Drinking Gourd
TTITLE28=Chat
TTITLE29=Sally Where'd You Get That Liquor From
EXTD=
EXTT0=
EXTT1=
EXTT2=
EXTT3=
EXTT4=
EXTT5=
EXTT6=
EXTT7=
EXTT8=
EXTT9=
EXTT10=
EXTT11=
EXTT12=
EXTT13=
EXTT14=
EXTT15=
EXTT16=
EXTT17=
EXTT18=
EXTT19=
EXTT20=
EXTT21=
EXTT22=
EXTT23=
EXTT24=
EXTT25=
EXTT26=
EXTT27=
EXTT28=
EXTT29=
PLAYORDER=
